<svg id="logo" xmlns="http://www.w3.org/2000/svg" viewBox="0 0 600 300"><defs><style>.cls-1{fill:#fff;}</style></defs><title>Ansible-Wordmark-RGB</title><path class="cls-1" d="M186.70849,172.89462a3.43056,3.43056,0,0,1-2.87092-1.21825l-32.58294-40.57806v41.39022h-7.43037V121.52232a3.76836,3.76836,0,0,1,3.80207-3.65286,3.46193,3.46193,0,0,1,2.95024,1.29946l32.49984,40.49684V118.438h7.43037v50.885a3.64592,3.64592,0,0,1-3.79828,3.57164"/><path class="cls-1" d="M248.16525,173.38136a67.66519,67.66519,0,0,1-22.45543-4.05705l1.77353-5.84381a73.16883,73.16883,0,0,0,20.6819,3.49042c9.37012,0,14.26577-3.16556,14.26577-7.62869,0-4.05894-3.80018-6.08746-16.88359-11.93128s-18.23217-9.576-18.23217-16.88171c0-9.168,7.42848-12.904,21.43928-12.904a87.83016,87.83016,0,0,1,19.92451,2.59893l-1.18238,6.00436a89.36194,89.36194,0,0,0-18.57215-2.191c-9.87442,0-13.92768,1.78487-13.92768,6.2499,0,4.38192,2.954,6.248,16.7986,12.33547,14.60387,6.41233,18.31716,9.6591,18.31716,16.31131,0,9.6591-9.62511,14.4471-21.94735,14.4471"/><rect class="cls-1" x="305.31544" y="118.43741" width="7.67968" height="54.05056"/><path class="cls-1" d="M378.33742,147.9789H359.25719V166.3225h19.08023c6.4992,0,10.4656-3.89651,10.4656-9.33424,0-5.11287-4.13448-9.00937-10.4656-9.00937m-3.71708-23.37337H359.25719v17.28779h15.36316c6.163,0,10.63749-3.73408,10.63749-8.92816,0-5.11286-3.88328-8.35964-10.63749-8.35964m3.8002,47.88377H355.4608a3.73386,3.73386,0,0,1-3.88328-3.65286V122.09159a3.78454,3.78454,0,0,1,3.88328-3.65286h18.99334c11.648,0,18.57026,5.43773,18.57026,13.95981,0,4.62368-2.87092,8.92627-7.26227,11.44209,6.503,1.86609,10.89059,6.979,10.89059,13.14764,0,8.6014-7.5116,15.501-18.23217,15.501"/><path class="cls-1" d="M433.54336,172.4893a3.76545,3.76545,0,0,1-3.79642-3.65286V118.43873h7.6797v47.47769h30.5582v6.57287H433.54336Z"/><path class="cls-1" d="M520.34855,173.38136c-15.70124,0-25.15636-5.51895-25.15636-16.63617,0-5.2753,3.12589-10.30695,9.202-12.66034-4.89565-2.92191-7.42661-7.06206-7.42661-11.60641,0-10.0633,8.18965-14.85319,23.55093-14.85319a95.987,95.987,0,0,1,18.48714,1.868l-0.84426,6.00436a121.21837,121.21837,0,0,0-18.23407-1.53934c-9.96131,0-15.28,2.59515-15.28,8.84505,0,4.95043,4.89755,8.84694,11.39863,8.84694h13.16654a3.12831,3.12831,0,1,1,0,6.248H515.03357c-7.43035,0-12.156,3.48853-12.156,8.84694,0,7.87234,7.68155,10.22573,17.30477,10.22573a89.05215,89.05215,0,0,0,18.06219-1.94731l1.09926,5.92314a78.75064,78.75064,0,0,1-18.99521,2.43461"/><path class="cls-1" d="M86.66064,128.57494l13.45362,31.92188L79.7969,145.10912Zm23.90033,39.2767-20.69133-47.88a3.34511,3.34511,0,0,0-3.209-2.10974,3.45329,3.45329,0,0,0-3.29021,2.10974l-22.7142,52.51689h7.76846l8.99237-21.65082,26.82979,20.83866a4.44562,4.44562,0,0,0,2.87091,1.21825,3.64559,3.64559,0,0,0,3.79829-3.56975,4.62448,4.62448,0,0,0-.35509-1.47323"/></svg>
